<?xml version="1.0" encoding="UTF-8"?>
<svg version="1.1" xmlns="http://www.w3.org/2000/svg" width="1155" height="879">
<path d="M0 0 C12.77285411 3.06359521 25.3789353 6.6254075 37.9921875 10.28515625 C40.11866916 10.89983034 42.24522745 11.51423941 44.37185669 12.12840271 C48.87175436 13.42852129 53.37114326 14.73037988 57.87011719 16.03369141 C64.96988129 18.09041104 72.0707788 20.14319755 79.171875 22.1953125 C87.44029283 24.58498256 95.70849274 26.97540296 103.97635269 29.36700249 C119.08561996 33.73741246 134.19881433 38.09399501 149.31500244 42.44039917 C155.64778732 44.26135672 161.980205 46.08358981 168.3125 47.90625 C168.97082951 48.09573652 169.62915901 48.28522305 170.3074379 48.48045158 C194.02390318 55.30727833 217.73489232 62.15312281 241.44714355 68.99456787 C273.5679323 78.26365194 273.5679323 78.26365194 305.6925621 87.51941109 C307.67614687 88.09048145 309.65963144 88.66189869 311.64309692 89.23338318 C317.89244744 91.03346867 324.14350565 92.82729858 330.39794922 94.60961914 C332.97122722 95.34453061 335.54437173 96.07988093 338.1171875 96.81640625 C338.76915981 97.00301378 339.42113213 97.18962132 340.09286118 97.38188362 C350.76078036 100.4409412 361.39552223 103.6060306 372.02364731 106.80040169 C381.48118752 109.64219932 390.94667684 112.45652108 400.41675186 115.2562542 C406.32791004 117.00580705 412.23378822 118.77010126 418.12988281 120.56982422 C423.69615503 122.26881183 429.27252962 123.92945015 434.85821152 125.56344795 C436.92846357 126.17648176 438.99467994 126.80334464 441.05618668 127.44517326 C453.14390445 131.19903951 462.03587127 133.09628328 474.08926773 128.67920876 C476.68047299 127.758112 479.31297675 127.04168304 481.96436405 126.31610012 C485.50651637 125.34388948 489.02836007 124.30127749 492.5546875 123.2734375 C494.14373703 122.81270208 495.73286616 122.35224113 497.32206726 121.89202881 C500.72351061 120.90643803 504.12442892 119.91906384 507.52493286 118.93023682 C513.00395457 117.3370523 518.48417921 115.74803341 523.96459961 114.15966797 C529.75470649 112.48136524 535.54474595 110.80283218 541.33439636 109.12295532 C560.21116017 103.64597699 579.09400776 98.19014408 597.97784424 92.73760986 C603.61083124 91.11111052 609.24366734 89.48408906 614.87646484 87.85693359 C616.28268978 87.45071557 616.28268978 87.45071557 617.7173233 87.03629112 C619.61383859 86.48844028 621.51035348 85.94058808 623.40686798 85.39273453 C627.20194478 84.29645325 630.99704067 83.20023805 634.79213715 82.10402489 C647.03728373 78.56701478 659.28233376 75.02967048 671.52734375 71.4921875 C672.91830859 71.09034933 672.91830859 71.09034933 674.33737373 70.68039322 C679.01893347 69.32792801 683.70049183 67.975458 688.38204956 66.62298584 C696.81704498 64.18617196 705.25205269 61.74940065 713.6870594 59.31262589 C718.37470677 57.95841898 723.06235334 56.60420935 727.75 55.25 C729.625 54.70833332 731.5 54.16666665 733.375 53.625 C734.303125 53.356875 735.23125 53.08875 736.1875 52.8125 C739 52 741.8125 51.1875 744.625 50.375 C745.55315269 50.10686682 746.48130539 49.83873363 747.43758392 49.5624752 C749.31230379 49.02088983 751.18702404 48.47930582 753.06174469 47.93772316 C757.75353399 46.5823238 762.44531645 45.22690077 767.13708496 43.87142944 C775.5233587 41.44862483 783.90967585 39.02597116 792.29625702 36.60423088 C796.9162892 35.27012762 801.53628021 33.93588181 806.15625 32.6015625 C807.07368484 32.33659595 807.99111969 32.07162941 808.93635559 31.79863358 C822.0037402 28.0243082 835.06913056 24.24313843 848.13330078 20.45770264 C855.53049508 18.31434407 862.92818519 16.17269911 870.32598877 14.03144455 C876.3843211 12.27771637 882.44197361 10.5216645 888.49913788 8.76390648 C892.2201593 7.68467982 895.94181269 6.607646 899.66365051 5.53123856 C901.39584873 5.0297632 903.1277768 4.52735363 904.85942078 4.02396774 C907.2187334 3.33824556 909.57896109 2.65577027 911.93945312 1.97412109 C912.63266159 1.7717836 913.32587006 1.56944611 914.04008484 1.36097717 C918.7718178 0 918.7718178 0 921 0 C922.15536986 4.18700944 922.25994872 8.30689163 922.38891602 12.6262207 C922.41832275 13.49694214 922.44772949 14.36766357 922.47802734 15.26477051 C922.5743333 18.15164976 922.66428385 21.03868733 922.75390625 23.92578125 C922.81946481 25.95005667 922.88530083 27.97432312 922.95140076 29.99858093 C923.08945185 34.25637562 923.22441624 38.51425398 923.35717773 42.7722168 C923.52542773 48.16204613 923.70070462 53.55161736 923.87835789 58.94114399 C924.01582995 63.13422528 924.14962567 67.32741818 924.2823925 71.52065086 C924.34552931 73.5028842 924.40968313 75.48508547 924.47497749 77.46724892 C924.93908706 91.6490642 925.07507523 105.81088882 925 120 C914.0216175 121.54634816 903.03601809 122.7602253 892.00259399 123.83308411 C890.22795679 124.00747274 888.45333677 124.1820362 886.67873228 124.35675734 C881.83859806 124.83239181 876.99810239 125.30424693 872.15750098 125.77510035 C869.05460642 126.0771542 865.95180987 126.38019734 862.84903717 126.68350029 C823.14418394 130.56322822 783.42732675 134.31499878 743.70548663 138.01644425 C737.17321404 138.62517586 730.64102453 139.23479457 724.10888672 139.8449707 C722.15952672 140.02703921 722.15952672 140.02703921 720.17078571 140.21278586 C701.95956846 141.91572648 683.75412401 143.67137602 665.55213984 145.47022676 C449.94510813 166.776002 449.94510813 166.776002 363.88104153 154.12467861 C342.8696054 151.06275353 321.81522251 149.01897092 300.67089844 147.12719727 C299.77795371 147.04708717 298.88500899 146.96697707 297.96500534 146.88443939 C289.68531448 146.14185108 281.40514506 145.40473758 273.12429786 144.67515439 C260.10057713 143.52730172 247.08035495 142.34535859 234.06219482 141.13609314 C233.14550232 141.05094853 232.22880981 140.96580393 231.28433874 140.87807918 C226.6422914 140.44671102 222.00030374 140.01470446 217.35834455 139.58238876 C208.94409072 138.79898763 200.52937811 138.0205388 192.1147075 137.24162967 C188.34870313 136.89298346 184.58271997 136.54410837 180.8167368 136.19523316 C168.28958991 135.03474925 155.76235826 133.87518155 143.23510742 132.71582031 C142.27190748 132.62667881 141.30870753 132.53753731 140.31631971 132.44569455 C139.35447368 132.35667851 138.39262764 132.26766247 137.40163475 132.17594898 C135.46367965 131.99659679 133.52572457 131.81724439 131.58776951 131.63789177 C130.15304184 131.50511168 130.15304184 131.50511168 128.68932978 131.36964916 C113.80105666 129.9917556 98.91283472 128.61330922 84.02461894 127.23479619 C78.69282766 126.74112706 73.36102921 126.2475355 68.02922542 125.75400154 C59.65513237 124.97885761 51.28106157 124.20347435 42.90703685 123.42759268 C39.09949769 123.07481532 35.29194829 122.72214947 31.48436928 122.36980247 C27.35828096 121.98797563 23.23224614 121.60557369 19.10621643 121.22311401 C17.91441365 121.11291077 16.72261088 121.00270754 15.49469286 120.88916481 C8.99366042 120.28599807 2.49540512 119.66111306 -4 119 C-4.08191411 104.66365741 -3.85522793 90.36319113 -3.37890625 76.03515625 C-3.31386092 74.01688711 -3.24899966 71.99861202 -3.18431091 69.98033142 C-3.04951782 65.79971768 -2.91225484 61.61919456 -2.77319336 57.4387207 C-2.59549973 52.08952632 -2.42462326 46.74013815 -2.25558567 41.3906641 C-2.12375265 37.24444626 -1.98814964 33.09835822 -1.85142326 28.95229912 C-1.78682256 26.9784176 -1.72343829 25.00449587 -1.66131783 23.03053474 C-1.57438638 20.28461687 -1.48231657 17.53891732 -1.38891602 14.79321289 C-1.36445908 13.98750854 -1.34000214 13.1818042 -1.31480408 12.35168457 C-1.16615478 8.15196221 -0.80336828 4.13837098 0 0 Z " fill="#034872" transform="translate(116,459)"/>
<path d="M0 0 C0.47244141 0.42458496 0.94488281 0.84916992 1.43164062 1.28662109 C2.10710937 1.88861328 2.78257812 2.49060547 3.47851562 3.11083984 C28.44888565 26.71378484 45.72104824 64.14176543 46.69494629 98.44673157 C46.74588911 101.39384434 46.75596286 104.33960358 46.74731445 107.28710938 C46.74416334 109.52052135 46.76768576 111.752591 46.79296875 113.98583984 C46.85373959 127.66575925 44.86767888 140.92627988 40.86914062 154.03662109 C40.49668213 155.26251953 40.49668213 155.26251953 40.11669922 156.51318359 C28.31033255 193.44052413 0.82542463 226.17480293 -33.49023438 244.23193359 C-34.84694737 244.92208759 -36.20637769 245.60692368 -37.56835938 246.28662109 C-38.26509766 246.63563477 -38.96183594 246.98464844 -39.6796875 247.34423828 C-72.08165474 263.28083595 -109.22262198 267.72821791 -144.56835938 260.28662109 C-145.34550293 260.12564941 -146.12264648 259.96467773 -146.92333984 259.79882812 C-186.12547545 251.35491686 -222.09183076 226.87865461 -244.27124023 193.4453125 C-252.3991157 180.79111976 -260.34909413 166.11552004 -263.56835938 151.28662109 C-263.23835938 150.29662109 -262.90835937 149.30662109 -262.56835938 148.28662109 C-260.7101326 147.4958086 -260.7101326 147.4958086 -258.22979736 146.90083313 C-257.29326324 146.66952698 -256.35672913 146.43822083 -255.39181519 146.1999054 C-254.35598297 145.95822128 -253.32015076 145.71653717 -252.25292969 145.4675293 C-251.16841522 145.20374481 -250.08390076 144.93996033 -248.96652222 144.66818237 C-245.36278194 143.79518371 -241.75484915 142.94106774 -238.14648438 142.08740234 C-235.64858999 141.48731688 -233.15093229 140.88624536 -230.65350342 140.28422546 C-225.40955423 139.023008 -220.16370935 137.7701936 -214.91601562 136.5246582 C-208.85299771 135.08553841 -202.79318789 133.63353064 -196.73508382 132.17387325 C-190.90746899 130.76982491 -185.07827352 129.37249663 -179.24819183 127.97871971 C-176.76794573 127.38551876 -174.28800929 126.79102153 -171.80838776 126.19521523 C-168.34073275 125.36351276 -164.87136406 124.53939846 -161.40136719 123.7175293 C-160.3736319 123.46977249 -159.34589661 123.22201569 -158.28701782 122.9667511 C-156.8652977 122.63248108 -156.8652977 122.63248108 -155.41485596 122.29145813 C-154.59483723 122.0962473 -153.7748185 121.90103647 -152.92995071 121.69991016 C-150.43160655 121.26268874 -148.09956814 121.21426835 -145.56835938 121.28662109 C-146.01308594 122.45580078 -146.4578125 123.62498047 -146.91601562 124.82958984 C-147.48828286 126.3775258 -148.05986143 127.92571647 -148.63085938 129.47412109 C-148.92541016 130.24304688 -149.21996094 131.01197266 -149.5234375 131.80419922 C-151.66611344 137.46915055 -151.66611344 137.46915055 -150.56835938 143.28662109 C-148.09199926 144.66128735 -148.09199926 144.66128735 -145.56835938 145.28662109 C-140.27069982 141.11612315 -136.1537051 136.54942782 -131.97460938 131.26318359 C-131.18054688 130.28091797 -130.38648438 129.29865234 -129.56835938 128.28662109 C-129.10763535 127.62226044 -128.64691132 126.95789978 -128.17222595 126.27340698 C-123.99113466 120.71015558 -123.99113466 120.71015558 -120.20523071 119.5831604 C-117.45071564 119.3630682 -114.80165032 119.38515546 -112.04101562 119.50537109 C-110.55763954 119.52235046 -110.55763954 119.52235046 -109.04429626 119.53967285 C-105.90446211 119.5842423 -102.76929829 119.68456587 -99.63085938 119.78662109 C-97.49485791 119.82677332 -95.35878441 119.86327104 -93.22265625 119.89599609 C-88.00298021 119.98391078 -82.7860034 120.11754476 -77.56835938 120.28662109 C-79.44975776 126.29529197 -81.66055283 131.99925079 -84.33398438 137.69677734 C-84.69047058 138.4673497 -85.04695679 139.23792206 -85.41424561 140.03184509 C-86.54446219 142.47304943 -87.68101634 144.91122993 -88.81835938 147.34912109 C-91.39457787 152.89062193 -93.95861273 158.43746259 -96.5065918 163.99200439 C-97.55876202 166.26587997 -98.63360413 168.52799835 -99.7109375 170.79003906 C-100.36728117 172.20391885 -101.02291517 173.61812837 -101.67773438 175.03271484 C-101.98624329 175.6641188 -102.2947522 176.29552277 -102.61260986 176.94606018 C-104.65558403 181.43380346 -104.69952382 184.52109443 -103.56835938 189.28662109 C-101.83148155 192.18141747 -100.51683255 192.2999799 -97.19335938 193.16162109 C-92.9262104 193.30876416 -91.89085388 192.88924179 -88.56835938 190.28662109 C-87.75386407 189.05159644 -86.98973472 187.78265243 -86.26367188 186.49365234 C-83.59372866 181.82072406 -81.05858164 177.41212864 -76.56835938 174.28662109 C-69.10522344 172.30450993 -61.13720691 173.28616336 -53.56835938 174.28662109 C-52.52767204 170.7800152 -52.52767204 170.7800152 -53.61914062 167.51708984 C-56.33001224 165.80581818 -58.57324121 165.7702296 -61.75585938 165.59912109 C-63.38587891 165.50050781 -63.38587891 165.50050781 -65.04882812 165.39990234 C-65.88027344 165.36251953 -66.71171875 165.32513672 -67.56835938 165.28662109 C-65.33829118 159.30745275 -62.84661942 154.09424869 -57.56835938 150.28662109 C-53.12465686 149.35765043 -48.69162187 149.76633484 -44.20117188 150.13037109 C-43.00234375 150.18193359 -41.80351563 150.23349609 -40.56835938 150.28662109 C-38.28107204 148.44778228 -38.28107204 148.44778228 -38.44335938 145.66162109 C-38.48460937 144.87787109 -38.52585937 144.09412109 -38.56835938 143.28662109 C-41.87950771 142.15782052 -45.15814194 141.07359435 -48.56835938 140.28662109 C-47.13811631 136.02681608 -45.02434533 133.14023998 -42.13085938 129.72412109 C-38.99801967 126.07044006 -38.99801967 126.07044006 -36.22410583 122.1529541 C-34.56835938 120.28662109 -34.56835938 120.28662109 -32.4122467 119.79455566 C-31.16126442 119.79932922 -31.16126442 119.79932922 -29.88500977 119.80419922 C-28.46322166 119.79398743 -28.46322166 119.79398743 -27.01271057 119.78356934 C-25.99080124 119.79488892 -24.96889191 119.8062085 -23.91601562 119.81787109 C-22.86433701 119.81082153 -21.81265839 119.80377197 -20.72911072 119.79650879 C-16.2236591 119.76693458 -11.71863528 119.78366835 -7.21313477 119.79589844 C-3.9263301 119.7982745 -0.64023269 119.77738243 2.64648438 119.75537109 C3.66636948 119.76669067 4.68625458 119.77801025 5.73704529 119.78967285 C11.24482287 119.82395045 11.24482287 119.82395045 16.07446289 117.47607422 C18.08219795 114.23711612 17.9641559 112.01422804 17.43164062 108.28662109 C15.99502751 105.76655265 15.99502751 105.76655265 13.43164062 104.28662109 C7.9885342 103.21898133 2.75460306 103.22289582 -2.75585938 103.32177734 C-4.52408127 103.32780387 -6.2923148 103.33097222 -8.06054688 103.33154297 C-10.82035337 103.33326355 -13.5758439 103.3492948 -16.33496094 103.41333008 C-31.72255752 103.74361248 -31.72255752 103.74361248 -36.25610352 100.16503906 C-38.05618404 97.60015625 -39.30658591 95.14711739 -40.56835938 92.28662109 C-41.68383217 90.5994838 -42.82602364 88.92939297 -44.00585938 87.28662109 C-46.56835938 83.5398848 -46.56835938 83.5398848 -46.56835938 81.28662109 C-43.92835938 80.62662109 -41.28835938 79.96662109 -38.56835938 79.28662109 C-37.89034903 76.38588928 -37.89034903 76.38588928 -37.56835938 73.28662109 C-38.22835937 72.62662109 -38.88835937 71.96662109 -39.56835938 71.28662109 C-41.7623075 71.64499509 -43.94903519 72.04811227 -46.13085938 72.47412109 C-49.92382812 72.84521484 -49.92382812 72.84521484 -53.56835938 72.28662109 C-57.65956764 68.49037311 -60.22217406 64.32657474 -62.56835938 59.28662109 C-62.56835938 58.29662109 -62.56835938 57.30662109 -62.56835938 56.28662109 C-61.43398438 55.97724609 -60.29960938 55.66787109 -59.13085938 55.34912109 C-55.78060838 54.65737578 -55.78060838 54.65737578 -54.56835938 53.28662109 C-54.31828207 50.82852111 -54.31828207 50.82852111 -54.56835938 48.28662109 C-55.22835937 47.62662109 -55.88835937 46.96662109 -56.56835938 46.28662109 C-58.61797299 46.59145031 -60.65902792 46.95499887 -62.69335938 47.34912109 C-66.24023438 47.68505859 -66.24023438 47.68505859 -69.56835938 47.28662109 C-73.2039104 44.2094717 -75.23983472 40.39728413 -77.56835938 36.28662109 C-78.83946272 34.39762028 -80.12991789 32.52143271 -81.44335938 30.66162109 C-82.27480469 29.43572266 -82.27480469 29.43572266 -83.12304688 28.18505859 C-84.43842424 26.16793907 -84.43842424 26.16793907 -86.56835938 25.28662109 C-90.24222469 24.87841384 -92.12122074 25.03821074 -95.38085938 26.84912109 C-98.24237742 30.03766977 -98.29907377 32.04457581 -98.56835938 36.28662109 C-97.87401634 39.55986419 -97.87401634 39.55986419 -96.57055664 42.81689453 C-96.2342775 43.73291191 -96.2342775 43.73291191 -95.89120483 44.66743469 C-95.15356092 46.66602367 -94.39426605 48.65562269 -93.63476562 50.64599609 C-93.11615731 52.04071831 -92.59908571 53.43601282 -92.08348083 54.83184814 C-90.72752595 58.49199226 -89.35370242 62.14515015 -87.97509766 65.79681396 C-85.76760615 71.65340128 -83.58770701 77.52031315 -81.40748405 83.38709259 C-80.64398294 85.43378752 -79.8729858 87.47753233 -79.10072327 89.52093506 C-78.63219131 90.77187838 -78.16379503 92.02287254 -77.69555664 93.27392578 C-77.28394791 94.36533875 -76.87233917 95.45675171 -76.44825745 96.58123779 C-75.56835938 99.28662109 -75.56835938 99.28662109 -75.56835938 102.28662109 C-81.93529694 102.56730608 -88.30062347 102.75886459 -94.67236328 102.89086914 C-96.83572992 102.9459302 -98.99869197 103.02080943 -101.16064453 103.11645508 C-120.1257342 103.93399122 -120.1257342 103.93399122 -125.14013672 99.94287109 C-127.65605334 97.17826951 -129.60825247 94.45979923 -131.56835938 91.28662109 C-132.83186852 89.80382524 -134.11853376 88.33989837 -135.44335938 86.91162109 C-137.33692845 84.76704402 -138.95049083 82.72536551 -140.56835938 80.34912109 C-143.37399078 77.45581371 -145.62260837 77.35969056 -149.56835938 77.28662109 C-150.22835937 77.94662109 -150.88835937 78.60662109 -151.56835938 79.28662109 C-151.56835938 86.26660337 -148.70763226 91.98349775 -145.84570312 98.21240234 C-144.56835938 101.28662109 -144.56835938 101.28662109 -144.56835938 104.28662109 C-157.41626239 103.57849741 -170.14684697 101.76843803 -182.90039062 100.12646484 C-185.34800163 99.81372806 -187.79564934 99.50127842 -190.24333191 99.18910217 C-196.64686291 98.37162298 -203.0498917 97.55027449 -209.45281982 96.72808838 C-216.00209886 95.88781619 -222.55185076 95.05124693 -229.1015625 94.21435547 C-241.92429053 92.57537811 -254.746507 90.93243402 -267.56835938 89.28662109 C-267.26429446 87.22538789 -266.956523 85.16470127 -266.6472168 83.10424805 C-266.47622971 81.95664505 -266.30524261 80.80904205 -266.1290741 79.62666321 C-265.37360238 75.12650075 -264.23063895 70.82764181 -262.88085938 66.47412109 C-262.4867688 65.19529053 -262.4867688 65.19529053 -262.0847168 63.890625 C-255.9178078 44.42898641 -246.24199286 26.53711511 -232.56835938 11.28662109 C-232.11348145 10.7676123 -231.65860352 10.24860352 -231.18994141 9.71386719 C-204.033243 -21.23551412 -164.97011262 -40.62919376 -123.81835938 -43.58886719 C-76.94639753 -46.1826932 -34.87307689 -31.17281994 0 0 Z " fill="#034872" transform="translate(685.568359375,240.71337890625)"/>
<path d="M0 0 C1.07065201 0.46803543 2.14130402 0.93607086 3.24440002 1.41828918 C6.73407375 2.94564168 10.21848077 4.48464956 13.703125 6.0234375 C16.13522837 7.08961004 18.56776766 8.15478872 21.00073242 9.21899414 C25.81934515 11.32710326 30.63652283 13.43843494 35.45263672 15.55224609 C43.37165132 19.02412512 51.31327512 22.44127707 59.265625 25.8359375 C60.60991334 26.41085301 61.95415076 26.98588761 63.29833984 27.56103516 C66.18285503 28.79502023 69.06764382 30.02836267 71.95263672 31.26123047 C82.57957877 35.80280892 93.20445325 40.34921479 103.828125 44.8984375 C105.02424408 45.410578 106.22036316 45.92271851 107.45272827 46.45037842 C125.94187577 54.3691388 144.40032748 62.35667142 162.84353638 70.38180542 C179.9500156 77.8228034 197.09664774 85.16540368 214.265625 92.4609375 C245.68746152 105.82171556 245.68746152 105.82171556 257.18759155 110.8107605 C258.55625146 111.40364613 259.92588025 111.99430089 261.29653931 112.58255005 C263.11840447 113.36508443 264.9363039 114.15683347 266.75390625 114.94921875 C267.74559814 115.37887939 268.73729004 115.80854004 269.7590332 116.2512207 C271.953125 117.3984375 271.953125 117.3984375 272.953125 119.3984375 C272.22125977 119.82439209 271.48939453 120.25034668 270.73535156 120.68920898 C256.79817433 128.80912022 242.90534067 136.988859 229.140625 145.3984375 C221.25112447 150.21788533 213.33985119 154.96652282 205.25048828 159.44482422 C201.12543847 161.72914384 197.05429843 164.09046156 193.015625 166.5234375 C192.43345215 166.8726123 191.8512793 167.22178711 191.25146484 167.58154297 C187.01155849 170.1334304 182.80081491 172.73027149 178.59375 175.3359375 C176.88688819 176.38283232 175.18002019 177.4297189 173.47189331 178.47454834 C171.78635148 179.51069637 170.10904846 180.56020814 168.43188477 181.60986328 C167.39346436 182.2439209 166.35504395 182.87797852 165.28515625 183.53125 C164.35421143 184.10762207 163.4232666 184.68399414 162.46411133 185.27783203 C159.953125 186.3984375 159.953125 186.3984375 157.75463867 186.30834961 C155.41246943 185.12536211 154.9011146 184.0723501 153.796875 181.70703125 C153.42038818 180.93480225 153.04390137 180.16257324 152.65600586 179.36694336 C152.25905518 178.53171143 151.86210449 177.69647949 151.453125 176.8359375 C144.60810904 163.15494106 135.53213315 151.42344094 124.953125 140.3984375 C124.07527344 139.45742187 123.19742187 138.51640625 122.29296875 137.546875 C94.5850497 108.37589422 52.46937806 89.12652389 12.21289062 87.22143555 C-37.37061713 86.43294971 -83.46988082 98.15485212 -120.42578125 132.85546875 C-122.99216211 135.34535539 -125.52605794 137.86245763 -128.046875 140.3984375 C-128.59633789 140.93009521 -129.14580078 141.46175293 -129.71191406 142.00952148 C-133.81619764 146.01327595 -137.43900739 150.17419404 -140.859375 154.7734375 C-141.3656543 155.44955078 -141.87193359 156.12566406 -142.39355469 156.82226562 C-147.89231277 164.31651305 -152.51388966 172.29522476 -157.046875 180.3984375 C-178.65553713 171.68635236 -199.83501781 162.02559939 -221.046875 152.3984375 C-220.71985984 159.19932009 -220.36291903 165.99815152 -219.98486328 172.79638672 C-219.8597511 175.11047465 -219.74156229 177.4249475 -219.63037109 179.73974609 C-219.46958798 183.06212283 -219.28416428 186.38233148 -219.09375 189.703125 C-219.02628571 191.26255325 -219.02628571 191.26255325 -218.9574585 192.85348511 C-218.8678183 194.29475266 -218.8678183 194.29475266 -218.77636719 195.76513672 C-218.70974884 197.03754715 -218.70974884 197.03754715 -218.64178467 198.33566284 C-218.25201391 200.57127474 -218.25201391 200.57127474 -216.13800049 201.5317688 C-215.44792908 201.81776947 -214.75785767 202.10377014 -214.046875 202.3984375 C-209.45290937 207.64868394 -208.734375 210.67648986 -208.734375 217.53125 C-209.05526323 220.47539952 -209.67752586 221.93001222 -211.234375 224.3984375 C-212.60578508 226.76894936 -213.10623722 227.95946341 -212.73461914 230.70751953 C-212.47801514 231.55685059 -212.22141113 232.40618164 -211.95703125 233.28125 C-211.66675049 234.25094727 -211.37646973 235.22064453 -211.07739258 236.21972656 C-208.83066061 243.14994457 -206.44602379 250.03206948 -204.01171875 256.8984375 C-203.61597656 258.05085938 -203.22023438 259.20328125 -202.8125 260.390625 C-202.44930664 261.42558105 -202.08611328 262.46053711 -201.71191406 263.52685547 C-201.00564026 266.57648558 -201.1906556 268.41810902 -202.046875 271.3984375 C-210.86717985 272.43909202 -219.69144416 273.4549068 -228.546875 274.1484375 C-229.7534375 274.24640625 -230.96 274.344375 -232.203125 274.4453125 C-235.046875 274.3984375 -235.046875 274.3984375 -237.046875 272.3984375 C-237.73548563 265.94909526 -237.00082117 259.34245858 -236.3984375 252.91015625 C-236.28113281 251.62689453 -236.16382813 250.34363281 -236.04296875 249.02148438 C-235.85626633 247.04145608 -235.66912541 245.06127843 -235.44873047 243.0847168 C-234.36151537 235.33477656 -234.36151537 235.33477656 -236.29614258 228.00561523 C-237.78287278 226.28165276 -239.30915613 224.86029602 -241.046875 223.3984375 C-243.58417859 219.31668825 -243.21795753 215.4434692 -242.671875 210.80859375 C-242.046875 208.3984375 -242.046875 208.3984375 -239.484375 205.3984375 C-236.84959288 202.15562874 -236.7448555 201.73755791 -236.85351562 197.83081055 C-236.87575195 196.94090424 -236.89798828 196.05099792 -236.92089844 195.13412476 C-237.11543564 190.90958548 -237.37574231 186.696777 -237.703125 182.48046875 C-237.8030072 181.12824471 -237.8030072 181.12824471 -237.90490723 179.748703 C-238.11543598 176.90251024 -238.33070389 174.05670685 -238.546875 171.2109375 C-238.76265161 168.35443175 -238.97730087 165.49785962 -239.18884277 162.64103699 C-239.31982958 160.87335899 -239.45323292 159.10585779 -239.58947754 157.33857727 C-239.93606772 152.67562022 -240.11289232 148.07427114 -240.046875 143.3984375 C-240.92174561 143.11540771 -241.79661621 142.83237793 -242.69799805 142.54077148 C-247.86535166 140.7781377 -252.84333633 138.61066836 -257.859375 136.4609375 C-258.92091797 136.01814453 -259.98246094 135.57535156 -261.07617188 135.11914062 C-262.08357422 134.68666016 -263.09097656 134.25417969 -264.12890625 133.80859375 C-265.50912964 133.22283569 -265.50912964 133.22283569 -266.91723633 132.62524414 C-269.046875 131.3984375 -269.046875 131.3984375 -270.046875 128.3984375 C-269.18449219 127.94218994 -268.32210938 127.48594238 -267.43359375 127.01586914 C-251.59054436 118.63349734 -235.74979582 110.24684796 -219.921875 101.8359375 C-219.26765564 101.48829346 -218.61343628 101.14064941 -217.93939209 100.7824707 C-213.30836185 98.321486 -208.67758719 95.8600206 -204.046875 93.3984375 C-198.7553872 90.58560085 -193.46374296 87.77305889 -188.171875 84.9609375 C-187.51624573 84.61249786 -186.86061646 84.26405823 -186.18511963 83.90505981 C-178.61402649 79.88164624 -171.04010653 75.86365082 -163.4609375 71.85546875 C-162.74570419 71.47720444 -162.03047089 71.09894012 -161.29356384 70.70921326 C-155.29384803 67.53623181 -155.29384803 67.53623181 -152.64346313 66.13473511 C-141.7085465 60.35128781 -130.79968674 54.52106791 -119.90283203 48.66625977 C-111.74909176 44.29216085 -103.55426857 40.00261615 -95.34057617 35.74243164 C-87.9891869 31.91801319 -80.71741149 27.9592258 -73.45556641 23.96801758 C-65.50338238 19.61277856 -57.46934517 15.42504556 -49.40332031 11.28491211 C-44.14964693 8.57734424 -38.95279674 5.80669056 -33.8203125 2.875 C-32.82708984 2.31232422 -31.83386719 1.74964844 -30.81054688 1.16992188 C-28.93550821 0.10118787 -27.06896806 -0.98264931 -25.21289062 -2.08398438 C-24.37177734 -2.56158203 -23.53066406 -3.03917969 -22.6640625 -3.53125 C-21.93815918 -3.95647949 -21.21225586 -4.38170898 -20.46435547 -4.81982422 C-13.41869593 -7.09817221 -6.32426806 -2.81397815 0 0 Z " fill="#044973" transform="translate(576.046875,94.6015625)"/>
<path d="M0 0 C4.82989203 1.5314395 8.93801546 3.56002412 13.25 6.1875 C14.76356586 7.09371356 16.27794319 7.99857267 17.79296875 8.90234375 C18.62103027 9.39718262 19.4490918 9.89202148 20.30224609 10.40185547 C25.36136193 13.39886654 30.46488207 16.3191337 35.5625 19.25 C44.05684338 24.14096258 52.53765902 29.05387496 61 34 C72.54718726 40.74719493 84.12902168 47.43339398 95.71777344 54.10888672 C102.22871257 57.86028024 108.73663194 61.61690994 115.24511719 65.37255859 C120.68585336 68.51182246 126.12731477 71.64981497 131.5703125 74.78515625 C143.0544882 81.40222892 154.52196894 88.04633977 165.96582031 94.73291016 C176.52620282 100.89919054 187.12126766 107.0049595 197.71777344 113.10888672 C204.22871257 116.86028024 210.73663194 120.61690994 217.24511719 124.37255859 C222.68585336 127.51182246 228.12731477 130.64981497 233.5703125 133.78515625 C245.0544882 140.40222892 256.52196894 147.04633977 267.96582031 153.73291016 C276.3273333 158.61525541 284.70793437 163.46399259 293.10009766 168.29345703 C298.22347879 171.24192701 303.34327914 174.1959338 308.44821167 177.17622375 C310.84493523 178.57509392 313.24371965 179.97040892 315.64263916 181.36550903 C317.33912146 182.35409266 319.03263268 183.34776929 320.72607422 184.34155273 C321.7523291 184.93782471 322.77858398 185.53409668 323.8359375 186.1484375 C325.19017822 186.94000244 325.19017822 186.94000244 326.57177734 187.74755859 C329.64999611 189.36149443 329.64999611 189.36149443 333 190 C335.44538023 188.99395189 335.44538023 188.99395189 337.9453125 187.34375 C338.92636963 186.74103271 339.90742676 186.13831543 340.91821289 185.51733398 C341.97645264 184.85161377 343.03469238 184.18589355 344.125 183.5 C345.81535365 182.46043558 347.50573931 181.42091921 349.19795227 180.38438416 C350.36938414 179.66680665 351.54001745 178.94792404 352.70988464 178.22779846 C358.75860391 174.51131351 364.90233873 170.96569806 371.0625 167.4375 C373.24493671 166.18384621 375.42722884 164.9299407 377.609375 163.67578125 C378.67607422 163.06299316 379.74277344 162.45020508 380.84179688 161.81884766 C395.397301 153.4361555 409.86936398 144.9080506 424.35791016 136.41030884 C437.52450214 128.68794652 450.70923534 120.99687634 463.89746094 113.31152344 C476.39590801 106.02741001 488.88449894 98.72680275 501.36239624 91.40756226 C510.53448913 86.02765105 519.7151275 80.66265113 528.90234375 75.30859375 C536.77569394 70.71842014 544.63891337 66.11112816 552.5 61.5 C566.2856755 53.41401223 580.08890191 45.35837162 593.89746094 37.31152344 C596.82764457 35.60380809 599.75763391 33.89576009 602.6875 32.1875 C604.14289185 31.33901489 604.14289185 31.33901489 605.62768555 30.47338867 C611.2445292 27.19685847 616.85683474 23.91271342 622.46484375 20.62109375 C623.42021278 20.06046486 623.42021278 20.06046486 624.3948822 19.48851013 C627.4900608 17.67207352 630.58472789 15.85477626 633.6784668 14.03588867 C641.75041197 9.29454303 649.86268249 4.6280704 658 0 C660.94533892 2.94533892 661.31186951 6.57418481 662.24658203 10.51708984 C662.46145264 11.39853165 662.67632324 12.27997345 662.89770508 13.18812561 C663.6081518 16.11073237 664.30818013 19.03572466 665.0078125 21.9609375 C665.49770545 23.98885842 665.98809898 26.01665847 666.47897339 28.04434204 C667.50724911 32.29867362 668.53058945 36.55415272 669.55029297 40.81054688 C670.85824029 46.26910257 672.17652718 51.72509477 673.49829292 57.18031883 C674.51237151 61.36929485 675.52186271 65.55936542 676.52987289 69.74980545 C677.01429897 71.76195891 677.49994387 73.77381934 677.98682022 75.78538132 C678.66647702 78.59723074 679.34017089 81.41044203 680.01220703 84.22412109 C680.31606827 85.47421211 680.31606827 85.47421211 680.62606812 86.7495575 C680.80828918 87.51785385 680.99051025 88.28615021 681.17825317 89.07772827 C681.3378911 89.74250875 681.49752903 90.40728924 681.66200447 91.09221458 C682 93 682 93 682 97 C660.88894727 103.58613825 639.74511669 110.06057552 618.58418655 116.48443222 C616.00908767 117.26621564 613.43408635 118.04831975 610.85910034 118.83047485 C585.88128355 126.4166382 560.88857531 133.95174517 535.88110352 141.43951416 C509.09565376 149.45978149 482.32710145 157.53544854 455.5625 165.625 C453.49266568 166.25058008 451.42283129 166.87615991 449.35299683 167.5017395 C442.25637184 169.64663664 435.15975543 171.79156214 428.0632 173.93668938 C409.75495467 179.47084878 391.44461174 184.9980295 373.1325798 190.51964569 C371.14990838 191.11748927 369.16725243 191.71538415 367.18460083 192.31329346 C363.58403921 193.39908089 359.98343867 194.48473914 356.3828125 195.5703125 C355.36143692 195.87827759 354.34006134 196.18624268 353.28773499 196.50354004 C351.40905268 197.06982931 349.52951381 197.63328744 347.64898682 198.19342041 C345.87782552 198.73271436 344.11338675 199.29458249 342.35638428 199.87835693 C332.18206521 203.19079658 325.10517888 201.78165945 315.05859375 198.72265625 C313.86618073 198.36960419 312.6737677 198.01655212 311.44522095 197.65280151 C308.82950969 196.87727803 306.21525037 196.09803263 303.60256958 195.31246948 C299.33088068 194.02864691 295.05456179 192.76077435 290.77709961 191.49633789 C290.03667577 191.27746257 289.29625193 191.05858725 288.533391 190.83307934 C287.0067916 190.38188939 285.48017013 189.9307741 283.95352745 189.47973061 C281.58453518 188.77940983 279.21592955 188.0777927 276.84736633 187.37602234 C258.86153471 182.0515436 240.83007317 176.88697552 222.79810715 171.7213707 C214.42061968 169.32085535 206.04438199 166.91597922 197.66796875 164.51171875 C196.73192621 164.24309587 195.79588367 163.974473 194.83147621 163.69771004 C180.87979594 159.6936162 166.93223814 155.67543709 152.98828125 151.64453125 C152.07893641 151.38166195 151.16959156 151.11879265 150.23269081 150.84795761 C142.8641317 148.71771469 135.49581014 146.58665052 128.12758255 144.45526123 C104.40758596 137.59391528 80.68137382 130.75480398 56.9453125 123.94921875 C54.58429814 123.27213076 52.22328536 122.59503728 49.86227417 121.91793823 C39.51136681 118.94976579 29.16009578 115.98288003 18.80749321 113.02062511 C14.57507863 111.80919728 10.3431046 110.59623585 6.11123276 109.38291359 C4.13352691 108.81629149 2.1556165 108.25038286 0.17749405 107.6852169 C-2.52541062 106.91292715 -5.22762625 106.13827169 -7.9296875 105.36303711 C-8.72574968 105.13624393 -9.52181187 104.90945076 -10.34199715 104.67578506 C-15.77200149 103.11399925 -15.77200149 103.11399925 -18 102 C-17.36661008 95.74801539 -16.47213352 89.61796869 -15.32592773 83.44116211 C-15.07699265 82.07856766 -15.07699265 82.07856766 -14.82302856 80.68844604 C-14.27951169 77.71752714 -13.73159044 74.7474393 -13.18359375 71.77734375 C-12.80360543 69.70517401 -12.42389466 67.63295336 -12.04444885 65.5606842 C-11.04932616 60.13019601 -10.05045439 54.70040406 -9.05078125 49.27075195 C-8.02962117 43.7206331 -7.01203459 38.16985924 -5.99414062 32.61914062 C-3.99957643 21.74545235 -2.0010481 10.87249679 0 0 Z " fill="#054973" transform="translate(245,371)"/>
<path d="M0 0 C9.50296142 8.34778492 16.84333927 18.68849717 18.703125 31.49609375 C19.6345628 47.84999212 17.0770118 60.80815075 6.73828125 74.00390625 C-0.56838201 82.03171132 -11.26088195 88.06689817 -22.203125 88.734375 C-36.95208115 89.09508754 -47.95133465 86.58699299 -59.296875 76.49609375 C-70.61005409 64.6268794 -73.95159319 51.17811919 -73.60546875 35.265625 C-72.9922975 22.41447151 -67.37455117 11.04593617 -58.109375 2.18359375 C-41.38659392 -11.66673684 -17.4175127 -14.19598088 0 0 Z M-50.01953125 16.3828125 C-56.50235045 24.49031858 -59.37425153 34.16238362 -58.296875 44.49609375 C-55.87287355 55.81271765 -51.70474918 63.67981678 -42.16015625 70.3125 C-36.17261702 74.11590542 -29.52105099 75.0486231 -22.51953125 74.1328125 C-14.52316133 72.30475037 -8.37849747 68.67546157 -3.4765625 62.02734375 C2.96333884 51.6986131 4.71920376 42.27651243 2.421875 30.3515625 C0.32569317 22.02379663 -4.4713331 14.82291786 -11.5859375 9.91796875 C-25.21486892 2.38960663 -39.5920017 4.9621849 -50.01953125 16.3828125 Z " fill="#0F5079" transform="translate(185.296875,677.50390625)"/>
<path d="M0 0 C6.67701769 5.84717802 10.55815744 13.28799619 12 22 C12.08571455 24.26863488 12.11773736 26.5395648 12.11352539 28.80981445 C12.11367142 29.47378738 12.11381744 30.13776031 12.1139679 30.82185364 C12.11327483 33.00236349 12.10551099 35.18278644 12.09765625 37.36328125 C12.09578992 38.8807114 12.09436703 40.39814215 12.09336853 41.91557312 C12.08956032 45.89891235 12.07974459 49.8822148 12.06866455 53.86553955 C12.05841389 57.93444318 12.05386309 62.00335279 12.04882812 66.07226562 C12.03812074 74.04819579 12.02053774 82.02408908 12 90 C7.05 90 2.1 90 -3 90 C-3 81.09 -3 72.18 -3 63 C-18.18 63 -33.36 63 -49 63 C-49 71.91 -49 80.82 -49 90 C-53.62 90 -58.24 90 -63 90 C-63.09069253 81.04585642 -63.16394038 72.09202236 -63.20724869 63.13752174 C-63.22804392 58.97871335 -63.25621203 54.82023792 -63.30175781 50.66162109 C-63.34550616 46.64155216 -63.36919761 42.62180169 -63.37950897 38.60151291 C-63.38684875 37.0746294 -63.40118055 35.54776155 -63.42292023 34.02101517 C-63.60201971 20.91101882 -61.73912546 11.85544741 -52.4921875 2.19921875 C-38.35926827 -10.27230716 -15.36235623 -10.17271992 0 0 Z M-44.2734375 13.79296875 C-49.99635347 21.10846088 -49.36840484 29.14580191 -49.1875 38 C-49.125625 42.29 -49.06375 46.58 -49 51 C-33.82 51 -18.64 51 -3 51 C-2.938125 46.71 -2.87625 42.42 -2.8125 38 C-2.78518799 36.66324219 -2.75787598 35.32648437 -2.72973633 33.94921875 C-2.67352537 25.87418255 -3.41367269 20.21475561 -7.6875 13.25 C-12.51495342 8.5530183 -18.53299261 6.27192215 -25.1875 5.75 C-32.98055009 6.26101968 -38.34039623 8.77552027 -44.2734375 13.79296875 Z " fill="#0C4F77" transform="translate(667,675)"/>
<path d="M0 0 C7.91231711 5.38676942 12.93733213 12.38118229 14.8125 21.8125 C16.02851303 33.12115511 15.6900288 44.07595236 8.82421875 53.55859375 C3.5123618 59.87961178 -1.36720114 63.20573371 -9.1875 65.8125 C-20.75361956 66.52300684 -30.26465397 66.42773069 -40.1875 59.8125 C-40.5175 72.6825 -40.8475 85.5525 -41.1875 98.8125 C-46.1375 98.8125 -51.0875 98.8125 -56.1875 98.8125 C-56.25558154 89.50173905 -56.31049117 80.19114648 -56.34293652 70.8801918 C-56.35851747 66.55561236 -56.37961533 62.23121371 -56.41381836 57.90673828 C-56.44668454 53.72457887 -56.46440976 49.54259212 -56.47213173 45.36031342 C-56.47762677 43.77370236 -56.48835557 42.18709954 -56.50469017 40.60056305 C-56.64349636 26.54527281 -55.800682 13.60266519 -45.4765625 3.06640625 C-32.80578588 -7.65296385 -14.04430215 -7.97910449 0 0 Z M-36.625 15 C-40.70344982 20.44565742 -42.53190436 26.07040472 -42.1875 32.875 C-41.23911299 39.44232507 -38.11206583 44.32283312 -33.1875 48.6875 C-27.58330901 52.65713529 -22.96736538 53.56970146 -16.1875 52.8125 C-9.97922462 50.74307487 -5.31793135 47.98290097 -1.9375 42.3125 C1.37920258 35.67909483 1.74040806 29.40570015 -0.25 22.25 C-2.37844055 16.5180601 -5.92699554 12.38133862 -11.46875 9.71484375 C-20.53672527 6.46548595 -29.79588543 7.65870184 -36.625 15 Z " fill="#11527A" transform="translate(268.1875,700.1875)"/>
<path d="M0 0 C4.95 0 9.9 0 15 0 C15.04533873 9.21492318 15.08196649 18.42977124 15.10362434 27.64478111 C15.11402349 31.92452543 15.12811128 36.20418891 15.15087891 40.48388672 C15.17274621 44.62064016 15.18459767 48.75731626 15.18975449 52.89412308 C15.19342547 54.46562542 15.2005934 56.03712393 15.21146011 57.60859299 C15.29863656 70.74823996 15.22467118 83.47985899 5.875 93.6875 C-3.23943154 102.29010601 -13.53325227 103.4722576 -25.5 103.27734375 C-30.96135327 103.05016411 -35.29389742 101.79916882 -40 99 C-40.71414063 98.5875 -41.42828125 98.175 -42.1640625 97.75 C-49.45678618 92.94281136 -53.79950996 85.35185994 -56 77 C-57.2015264 65.60289319 -56.98677026 54.11607703 -50.234375 44.48046875 C-46.15239939 39.50656539 -42.06968677 36.15837584 -36 34 C-35.37480469 33.77699219 -34.74960937 33.55398438 -34.10546875 33.32421875 C-25.14308007 30.64097815 -15.55349912 31.2482197 -7 35 C-5.02 36.32 -3.04 37.64 -1 39 C-0.67 26.13 -0.34 13.26 0 0 Z M-36.4921875 52.13671875 C-40.17073344 56.68248666 -42.16207745 62.29522271 -42.4375 68.125 C-41.61207483 75.43590861 -39.34572869 80.77306529 -34 86 C-28.40555306 90.02100874 -22.78051446 91.06720339 -16 90 C-9.50653535 87.88084138 -4.97591278 84.03443749 -1.25 78.3125 C1.34925228 71.42448147 1.77125965 65.0219282 -0.921875 58.10546875 C-3.88153425 52.32555449 -7.81991263 48.22483145 -14 46 C-22.59738693 44.02682923 -29.99374386 46.04631692 -36.4921875 52.13671875 Z " fill="#11527A" transform="translate(1027,663)"/>
<path d="M0 0 C4.62 0 9.24 0 14 0 C14.33 13.2 14.66 26.4 15 40 C17.97 38.02 20.94 36.04 24 34 C33.35227557 30.18981366 43.76218844 31.38698926 53 35 C61.61129407 39.23106102 66.65712633 45.65666689 69.875 54.625 C72.65094618 65.32984635 72.13356457 77.1203097 67 87 C61.60041838 94.85193743 55.19854279 99.57952928 46.2109375 102.6015625 C34.00951445 104.80040552 22.08339004 103.25348364 11.6875 96.375 C4.93349247 90.88303494 1.61881098 83.39709836 0 75 C-0.1637515 72.40640569 -0.23583032 69.80577497 -0.22705078 67.20703125 C-0.22734283 66.47434525 -0.22763489 65.74165924 -0.22793579 64.98677063 C-0.22655641 62.59522126 -0.21106188 60.20399409 -0.1953125 57.8125 C-0.1915774 56.1424171 -0.18873278 54.47233198 -0.18673706 52.80224609 C-0.17913969 48.42927894 -0.15952511 44.05644688 -0.1373291 39.68353271 C-0.11678629 35.21221748 -0.10771738 30.74088018 -0.09765625 26.26953125 C-0.07627515 17.51295225 -0.04112522 8.75650855 0 0 Z M19.5078125 52.2109375 C15.03256611 57.52094487 13.22603543 63.55131552 13.55859375 70.44921875 C14.72343545 77.18056059 17.72692331 82.38944809 23.125 86.5625 C28.82532046 90.47731152 34.25796576 90.53201131 41 90 C47.58124796 87.68437572 51.9839472 82.9524693 55.2109375 76.87890625 C57.83136456 70.63917647 57.36594203 64.21873755 55 58 C51.77836683 52.20311229 48.0727567 48.61756754 42 46 C33.39870368 43.91904121 25.9732311 46.10637947 19.5078125 52.2109375 Z " fill="#0F5179" transform="translate(692,663)"/>
<path d="M0 0 C6.892467 5.5928281 10.96865145 11.78714895 12.84375 20.49609375 C13.4845576 27.86864465 13.22184331 35.29345562 13.09375 42.68359375 C13.07365364 44.70506042 13.05540842 46.72654639 13.0390625 48.74804688 C12.99531707 53.66454485 12.92646258 58.58010326 12.84375 63.49609375 C8.22375 63.49609375 3.60375 63.49609375 -1.15625 63.49609375 C-1.48625 61.51609375 -1.81625 59.53609375 -2.15625 57.49609375 C-2.84332031 57.91761719 -3.53039062 58.33914063 -4.23828125 58.7734375 C-5.13933594 59.32128906 -6.04039062 59.86914062 -6.96875 60.43359375 C-7.86207031 60.97886719 -8.75539063 61.52414062 -9.67578125 62.0859375 C-16.71960918 66.09038141 -26.53844632 65.38565839 -34.33984375 63.8828125 C-43.86308337 60.81646442 -50.11764987 55.08612251 -54.65625 46.24609375 C-59.13681569 36.63776954 -59.95735044 25.70894942 -56.53125 15.55859375 C-52.41882317 5.90083876 -46.23681581 -0.4557703 -36.54296875 -4.62890625 C-24.78790342 -8.93845557 -10.28171934 -7.10028569 0 0 Z M-38.09375 13.30859375 C-42.92973242 20.78238477 -44.20203254 26.5712905 -43.15625 35.49609375 C-41.13635826 42.69796966 -36.09874447 47.21359695 -29.78125 50.87109375 C-22.98205408 52.48994992 -17.34217486 51.88084509 -11.15625 48.49609375 C-6.06282094 45.00060322 -2.9038839 41.40290108 -1.15625 35.49609375 C-0.08795273 28.25763094 -0.8252665 22.07819558 -4.484375 15.6953125 C-8.50409421 10.4076912 -13.54741262 7.43127103 -20.09375 6.37109375 C-26.82031094 6.088201 -33.51653653 8.21061947 -38.09375 13.30859375 Z " fill="#0E5079" transform="translate(949.15625,701.50390625)"/>
<path d="M0 0 C7.84377147 6.76435338 12.28174368 15.24350125 13.34375 25.5390625 C13.69865401 36.03830613 10.70787668 44.68517312 4.0625 52.8125 C-1.96164554 59.16189283 -9.43671075 63.41351291 -18.22265625 64.05078125 C-29.35724165 64.26955801 -37.61300759 62.98077115 -46.3125 55.5625 C-54.35994876 47.7705258 -58.16752219 40.01187021 -58.375 28.625 C-58.19630857 17.97709289 -54.69400489 9.49919713 -47.3203125 1.7890625 C-33.59840991 -9.59336817 -14.57485374 -10.55082004 0 0 Z M-38.5 13.59765625 C-43.55770824 20.36521471 -43.61649256 26.62578976 -42.9375 34.8125 C-41.2655095 41.05728379 -37.24355317 45.29057824 -31.9375 48.8125 C-26.87451715 51.13303381 -22.06786587 51.76076918 -16.66796875 50.125 C-10.65154695 47.73040426 -6.71522349 44.75659908 -3.97265625 38.671875 C-1.27415972 31.35981989 -1.31241363 25.2148622 -3.953125 17.890625 C-6.05098517 13.46180908 -9.92991757 10.48422162 -13.9375 7.8125 C-23.1922344 4.72758853 -32.03016103 6.20586523 -38.5 13.59765625 Z " fill="#10527A" transform="translate(869.9375,702.1875)"/>
<path d="M0 0 C6.98763255 5.72778059 12.19365923 12.46128299 13.34082031 21.63623047 C14.26483701 32.6444182 13.08568595 42.29627661 6.1171875 51.28125 C-0.34360321 58.25752933 -8.36661388 63.21508779 -17.96484375 63.9609375 C-29.35298688 64.20269696 -38.07716804 62.13647859 -46.89453125 54.69140625 C-54.33488876 47.38158132 -57.53684845 38.85112612 -58.0625 28.48828125 C-57.74545401 18.29403333 -54.07231937 9.82420547 -47.2109375 2.28515625 C-33.85419874 -10.04414106 -14.45167102 -10.39192598 0 0 Z M-37.6484375 13.47265625 C-41.98721337 18.72132993 -43.36001182 23.84319243 -43.1484375 30.6796875 C-42.3992617 36.80185847 -39.75328883 42.78534859 -34.8984375 46.72265625 C-29.09861018 50.13856878 -23.81525447 51.38126112 -17.15234375 50.328125 C-11.06803795 48.69369277 -7.48474407 44.60401796 -3.8984375 39.72265625 C-0.85423978 33.46395604 -0.71303365 25.94565747 -2.5859375 19.2734375 C-5.29029703 13.35765103 -9.84957064 9.183396 -15.8984375 6.72265625 C-25.05328043 5.74086947 -31.20895454 6.67761901 -37.6484375 13.47265625 Z " fill="#11527A" transform="translate(418.8984375,702.27734375)"/>
<path d="M0 0 C6.88792563 5.62421347 9.39415439 12.25766565 10.42428589 20.91259766 C10.7778322 24.91970668 10.74690717 28.91766825 10.72265625 32.9375 C10.7212413 33.83621826 10.71982635 34.73493652 10.71836853 35.66088867 C10.71281583 38.50312775 10.70027237 41.34528513 10.6875 44.1875 C10.68247888 46.12630094 10.67791705 48.06510312 10.67382812 50.00390625 C10.66286194 54.73180183 10.64563044 59.45963711 10.625 64.1875 C5.675 64.1875 0.725 64.1875 -4.375 64.1875 C-4.3843457 62.99785645 -4.39369141 61.80821289 -4.40332031 60.58251953 C-4.44348442 56.12788779 -4.50931426 51.67392764 -4.58251953 47.21972656 C-4.61057694 45.29956757 -4.63186649 43.37929636 -4.64599609 41.45898438 C-4.2129316 24.73545539 -4.2129316 24.73545539 -11.9375 10.625 C-17.16399671 7.54270707 -22.45846596 7.56960732 -28.375 8.1875 C-33.63291352 10.81645676 -36.51016201 13.69431855 -38.42724609 19.22094727 C-39.67028971 23.73656048 -39.72652845 28.18034801 -39.7890625 32.83984375 C-39.80842865 33.73997696 -39.8277948 34.64011017 -39.8477478 35.56752014 C-39.90714471 38.41991945 -39.95376831 41.27236001 -40 44.125 C-40.03821655 46.06837619 -40.07727038 48.01173612 -40.1171875 49.95507812 C-40.21281312 54.69908533 -40.29699019 59.44317175 -40.375 64.1875 C-44.995 64.1875 -49.615 64.1875 -54.375 64.1875 C-54.4496515 58.24677213 -54.50383772 52.3063227 -54.53979492 46.36523438 C-54.55479884 44.34793333 -54.57520855 42.33066444 -54.60131836 40.31347656 C-54.63807353 37.39900737 -54.65481068 34.48497274 -54.66796875 31.5703125 C-54.68345261 30.68135284 -54.69893646 29.79239319 -54.71488953 28.87649536 C-54.71749341 18.99226825 -52.1513515 9.60179255 -45.375 2.1875 C-32.40290104 -7.80915052 -13.75044682 -9.63036809 0 0 Z " fill="#14547C" transform="translate(496.375,700.8125)"/>
<path d="M0 0 C4.62 0 9.24 0 14 0 C14 8.91 14 17.82 14 27 C19.94 27 25.88 27 32 27 C32 30.96 32 34.92 32 39 C26.06 39 20.12 39 14 39 C14.08732759 43.1676339 14.19427772 47.33322241 14.3125 51.5 C14.33505859 52.67304687 14.35761719 53.84609375 14.38085938 55.0546875 C14.60934861 62.44942997 14.96960296 68.80849974 19.4375 74.98828125 C24.51709342 79.29323668 29.52889931 80.56197762 36 82 C36 86.29 36 90.58 36 95 C26.04675109 95.64912493 17.67671228 92.24745874 10 86 C3.9208651 80.47597541 0.45253717 73.63910293 -0.3470459 65.44232178 C-0.46137108 61.26515094 -0.45100121 57.10709196 -0.390625 52.9296875 C-0.38314919 51.3969904 -0.37746261 49.86428363 -0.37347412 48.33157349 C-0.35832288 44.32996454 -0.31913463 40.32895177 -0.2746582 36.32757568 C-0.23347611 32.23148662 -0.21541453 28.13529966 -0.1953125 24.0390625 C-0.15262757 16.02573982 -0.0823667 8.01301314 0 0 Z " fill="#0C4E77" transform="translate(294,670)"/>
<path d="M0 0 C1.46469727 0.00966797 1.46469727 0.00966797 2.95898438 0.01953125 C3.96638672 0.03628906 4.97378906 0.05304687 6.01171875 0.0703125 C7.03845703 0.07933594 8.06519531 0.08835937 9.12304688 0.09765625 C11.64853802 0.12114919 14.17390867 0.15701799 16.69921875 0.1953125 C16.69921875 4.1553125 16.69921875 8.1153125 16.69921875 12.1953125 C15.07113281 12.26878906 15.07113281 12.26878906 13.41015625 12.34375 C11.96482091 12.41883236 10.51950956 12.49437778 9.07421875 12.5703125 C8.36136719 12.60125 7.64851562 12.6321875 6.9140625 12.6640625 C2.52769267 12.90551405 -1.16026465 13.58873981 -5.30078125 15.1953125 C-5.63078125 16.8453125 -5.96078125 18.4953125 -6.30078125 20.1953125 C-2.67851714 23.42598049 0.97143291 26.00634608 5.13671875 28.5078125 C11.38846908 32.4172858 17.95969249 37.65736537 19.69921875 45.1953125 C20.35426041 52.1387541 18.73566977 57.50000968 14.57421875 63.0078125 C7.4877276 68.39970794 -0.24528345 68.60524924 -8.86328125 68.3828125 C-9.87197266 68.36927734 -10.88066406 68.35574219 -11.91992188 68.34179688 C-14.38044413 68.30681315 -16.84068707 68.25302105 -19.30078125 68.1953125 C-19.30078125 63.9053125 -19.30078125 59.6153125 -19.30078125 55.1953125 C-17.98722656 55.14632812 -16.67367187 55.09734375 -15.3203125 55.046875 C-13.5846153 54.97181782 -11.84893922 54.89627127 -10.11328125 54.8203125 C-9.24896484 54.789375 -8.38464844 54.7584375 -7.49414062 54.7265625 C-1.17088444 54.44438943 -1.17088444 54.44438943 4.69921875 52.1953125 C6.03708375 50.42750614 6.03708375 50.42750614 5.69921875 48.1953125 C2.30757794 44.33889129 -1.22544297 41.89339526 -5.67578125 39.3828125 C-12.02227199 35.66038604 -17.89943836 31.39934116 -20.30078125 24.1953125 C-20.83463267 18.23054956 -20.85348274 13.23785655 -17.30078125 8.1953125 C-12.20429447 2.96040262 -7.50194159 -0.08774201 0 0 Z " fill="#10527A" transform="translate(535.30078125,696.8046875)"/>
<path d="M0 0 C0 5.61 0 11.22 0 17 C-1.52625 17.2475 -3.0525 17.495 -4.625 17.75 C-10.73702107 18.99312293 -14.44908178 20.98799799 -18.3125 26 C-21.16737366 31.07533095 -21.19482204 35.74665528 -21.31640625 41.484375 C-21.33718735 42.29996887 -21.35796844 43.11556274 -21.37937927 43.95587158 C-21.44461297 46.55383105 -21.50363768 49.15188913 -21.5625 51.75 C-21.60571014 53.514333 -21.64932522 55.27865613 -21.69335938 57.04296875 C-21.80026745 61.36187884 -21.90160827 65.68088784 -22 70 C-26.62 70 -31.24 70 -36 70 C-36.09964557 64.07760399 -36.17183264 58.15570706 -36.21972656 52.23266602 C-36.23971393 50.22216276 -36.26691326 48.21171667 -36.30175781 46.20141602 C-36.5281671 32.79332495 -36.72235704 20.72326485 -27.828125 9.78515625 C-19.71441892 1.86215694 -11.04475825 0 0 0 Z " fill="#0F5179" transform="translate(809,695)"/>
<path d="M0 0 C4.95 0 9.9 0 15 0 C15 22.44 15 44.88 15 68 C10.05 68 5.1 68 0 68 C0 45.56 0 23.12 0 0 Z " fill="#16567D" transform="translate(337,697)"/>
<path d="M0 0 C4.95 0 9.9 0 15 0 C15 4.95 15 9.9 15 15 C10.05 15 5.1 15 0 15 C0 10.05 0 5.1 0 0 Z " fill="#286387" transform="translate(337,664)"/>
<path d="M0 0 C1.55420906 0.01273453 1.55420906 0.01273453 3.13981628 0.02572632 C6.44193479 0.05925352 9.74159122 0.13453563 13.04296875 0.2109375 C15.28446989 0.2410378 17.52600939 0.26841348 19.76757812 0.29296875 C25.25604518 0.3590421 30.74308108 0.45938384 36.23046875 0.5859375 C36.23046875 0.9159375 36.23046875 1.2459375 36.23046875 1.5859375 C35.67780838 1.58736252 35.12514801 1.58878754 34.55574036 1.59025574 C28.79634153 1.60996337 23.03800105 1.66425891 17.27905273 1.73852539 C15.13069251 1.76170272 12.98221871 1.77610047 10.83374023 1.78149414 C7.74260702 1.79078541 4.65325963 1.83178101 1.5625 1.87890625 C0.12472954 1.87300728 0.12472954 1.87300728 -1.34208679 1.86698914 C-7.20829237 1.95668203 -7.20829237 1.95668203 -11.9152832 5.13012695 C-12.52718506 5.94054443 -13.13908691 6.75096191 -13.76953125 7.5859375 C-14.42953125 7.2559375 -15.08953125 6.9259375 -15.76953125 6.5859375 C-11.5314893 -0.28849164 -7.72377706 -0.23864808 0 0 Z " fill="#BED0DA" transform="translate(661.76953125,360.4140625)"/>
<path d="M0 0 C0.66 0.33 1.32 0.66 2 1 C-4.6 7.6 -11.2 14.2 -18 21 C-18.66 20.67 -19.32 20.34 -20 20 C-17.98406752 17.78702148 -15.96250115 15.57965623 -13.9375 13.375 C-13.37611328 12.75753906 -12.81472656 12.14007813 -12.23632812 11.50390625 C-8.39290663 7.33104863 -4.3703098 3.61872786 0 0 Z " fill="#5684A0" transform="translate(472,233)"/>
<path d="M0 0 C0.66 0.33 1.32 0.66 2 1 C-1.63 4.63 -5.26 8.26 -9 12 C-9.66 11.67 -10.32 11.34 -11 11 C-9.73347137 9.53792657 -8.46161082 8.08047074 -7.1875 6.625 C-6.47980469 5.81289063 -5.77210938 5.00078125 -5.04296875 4.1640625 C-3 2 -3 2 0 0 Z " fill="#5986A2" transform="translate(828,700)"/>
<path d="M0 0 C0.66 0.33 1.32 0.66 2 1 C-1.63 4.63 -5.26 8.26 -9 12 C-9.66 11.67 -10.32 11.34 -11 11 C-9.73347137 9.53792657 -8.46161082 8.08047074 -7.1875 6.625 C-6.47980469 5.81289063 -5.77210937 5.00078125 -5.04296875 4.1640625 C-3 2 -3 2 0 0 Z " fill="#51819E" transform="translate(132,676)"/>
<path d="M0 0 C0.66 0.33 1.32 0.66 2 1 C-1.3 4.3 -4.6 7.6 -8 11 C-8.66 10.67 -9.32 10.34 -10 10 C-8.90033225 8.70450101 -7.79508199 7.41373929 -6.6875 6.125 C-6.07261719 5.40570312 -5.45773437 4.68640625 -4.82421875 3.9453125 C-3 2 -3 2 0 0 Z " fill="#55839F" transform="translate(906,700)"/>
<path d="M0 0 C0.66 0.33 1.32 0.66 2 1 C-0.97 3.97 -3.94 6.94 -7 10 C-7.66 9.67 -8.32 9.34 -9 9 C-6.21000549 5.51250686 -3.74764169 2.49842779 0 0 Z " fill="#5C88A3" transform="translate(227,700)"/>
<path d="M0 0 C0 0.33 0 0.66 0 1 C-1.8253125 1.0928125 -1.8253125 1.0928125 -3.6875 1.1875 C-8.15849852 1.71163126 -10.13301658 3.50586395 -13 7 C-13.66 6.67 -14.32 6.34 -15 6 C-10.88012059 -0.59180706 -7.51260325 -0.78772927 0 0 Z " fill="#6B94AD" transform="translate(661,361)"/>
<path d="M0 0 C0.66 0.33 1.32 0.66 2 1 C-0.64 3.64 -3.28 6.28 -6 9 C-6.66 8.67 -7.32 8.34 -8 8 C-5.58443874 4.80800833 -3.31996462 2.25283313 0 0 Z " fill="#5A87A2" transform="translate(787,700)"/>
<path d="M0 0 C0.66 0.33 1.32 0.66 2 1 C-0.31 3.31 -2.62 5.62 -5 8 C-5.66 7.67 -6.32 7.34 -7 7 C-4.66666667 4.66666667 -2.33333333 2.33333333 0 0 Z " fill="#54839F" transform="translate(455,700)"/>
<path d="M0 0 C2.625 -0.1875 2.625 -0.1875 5 0 C2.03716687 2.38672669 -0.94270509 4.7353371 -4 7 C-2.79618552 4.50638429 -1.54571278 2.31856917 0 0 Z " fill="#769CB2" transform="translate(609,415)"/>
</svg>
